<?xml version="1.0" encoding="UTF-8" standalone="no"?>
<svg xmlns="http://www.w3.org/2000/svg" viewBox="0 0 100 100" height="100" width="100">
    <g id="aheui">
        <path id="ah" fill="#ff0000" d="m 39.4953,25.17213 c 2.83541,0.21237 4.54262,3.55425 3.52388,6.06093 -1.58326,2.68464 -3.02675,4.70878 -5.83514,4.78424 -3.72647,0.24274 -5.40391,-2.00377 -4.90116,-5.02035 0.67157,-3.17329 3.90451,-5.86083 7.21242,-5.82482 z m -4.16826,-4.64098 c -3.49292,1.09015 -6.85731,3.71692 -8.38185,8.68559 -1.77496,6.04574 3.28847,11.55791 9.4599,11.70195 6.13399,0.21432 11.00963,-2.5715 12.74594,-9.13265 0.95617,-4.56881 -1.79317,-7.81987 -3.78595,-9.67565 -1.50953,-1.09909 -2.85506,-1.66072 -4.88103,-1.89624 -0.9931,-0.11776 -3.17077,-0.2718 -5.15701,0.317 z m 8.169,-20.53101 c -3.47492,0.0806 -7.51953,0.8057 -9.57639,3.88003 -0.80459,3.05191 4.0348,1.41891 5.80786,2.13562 2.42737,0.0586 4.02301,1.91409 5.58635,3.48294 6.43299,6.08273 12.29772,12.20208 19.06376,17.9296 2.54351,2.07354 5.23057,4.45671 7.77198,6.50321 0.60004,0.70461 2.17762,4.40312 2.81156,2.71077 -1.10251,-5.50242 -4.6084,-10.37577 -8.3135,-14.70284 -3.26039,-4.05527 -4.90247,-3.71717 -2.96534,-4.87708 2.28274,-1.43579 5.76283,-3.47045 6.17526,-4.48854 1.19315,-3.13809 -2.64539,-4.93304 -5.72555,-3.01776 -3.17055,2.00632 -2.12431,4.94607 -4.2524,5.46288 C 55.40923,10.59708 50.95042,6.13245 46.5714,1.61035 45.97608,0.52129 44.7056,-0.00937 43.49604,0 Z"/>
        <path id="eui" fill="#0000ff" d="m 6.73641,29.19133 c -2.47186,-2.9657 -7.6634,-4.92277 -6.5932,1.47703 0.91776,5.49923 3.08794,9.3876 5.97461,14.19033 3.15135,2.67219 7.05217,3.2518 10.42536,5.69734 7.9548,5.32106 15.48112,11.99654 23.38498,17.89697 2.77316,2.65855 8.09501,5.85221 7.07457,6.82919 -4.4826,4.46913 -7.62362,8.86526 -13.03932,16.165 -3.31099,3.77399 -10.29064,7.41497 -9.63911,8.40653 0.74541,1.04251 11.5174,-3.7604 16.08449,-5.74759 3.37873,-1.3847 22.10344,-18.11265 33.55753,-29.58744 8.34763,-8.36873 16.3163,-15.86359 25.27784,-24.43996 1.70916,-1.58503 0.15923,-8.55008 -1.10977,-12.44145 -1.63388,-5.29158 -6.47481,-10.62243 -9.31062,-9.31598 -1.96899,0.76088 -0.81897,3.86573 -0.56695,6.48678 0.27236,4.28139 2.05184,7.69872 -3.49159,12.67547 C 77.19647,44.48234 64.47352,58.13913 53.74757,68.56397 39.54212,57.67214 21.35778,43.27393 6.73643,29.19136 Z"/>
    </g>
</svg>
